<?xml version='1.0' encoding='UTF-8' standalone='no'?>
<svg
  xmlns="http://www.w3.org/2000/svg"
  xmlns:svg="http://www.w3.org/2000/svg"
  width="0.59055001in"
  height="0.59055209in"
  viewBox="0 0 590.55 590.55209"
  version="1.1"
  id="svg8">
  <defs
    id="defs2">
    <clipPath
      clipPathUnits="userSpaceOnUse"
      id="clipPath1202">
      <g
        id="use1204">
        <path
          id="path13452"
          d="m 48.747413,34.910698 a 0.55759317,0.56134367 0 0 1 -0.557594,0.561344 0.55759317,0.56134367 0 0 1 -0.557593,-0.561344 0.55759317,0.56134367 0 0 1 0.557593,-0.561344 0.55759317,0.56134367 0 0 1 0.557594,0.561344 z"
          opacity="1"
          fill="none"
          stroke="none"
          stroke-width="0"
          stroke-miterlimit="4"
          stroke-dasharray="none"
          stroke-opacity="1"
          paint-order="markers fill stroke"
        />
      </g>
    </clipPath>
  </defs>
  <g
    id="breadboard">
    <path
      id="rect835"
      d="M 0,0 V 590.55207 H 590.55207 V 0 Z m 506.9751,8.3210887 c 0.26457,-0.00171 0.52914,-0.00171 0.7937,0 16.2889,0.00335 31.90969,6.4755893 43.42772,17.9935913 11.51799,11.518003 17.9902,27.138803 17.99354,43.427712 0.002,16.292444 -6.46775,31.918478 -17.98634,43.440888 -11.51858,11.52242 -27.14248,17.99745 -43.43492,18.00081 -16.29598,0.002 -31.92511,-6.47058 -43.4481,-17.99358 -11.523,-11.523 -17.99563,-27.152134 -17.99359,-43.448118 0.002,-16.15587 6.368,-31.660697 17.71933,-43.156746 11.35134,-11.496051 26.77425,-18.0579163 42.92882,-18.2645573 z m 0.0217,449.9076813 c 0.2576,-0.002 0.51523,-0.002 0.77283,0 16.29595,-0.002 31.92504,6.47059 43.44799,17.99358 11.52299,11.52295 17.99563,27.15205 17.99358,43.44799 0.002,16.29594 -6.47055,31.92508 -17.99354,43.44807 -11.52295,11.52299 -27.15208,17.99567 -43.44803,17.99362 -16.29248,-0.003 -31.91638,-6.47835 -43.435,-18.00075 -11.51858,-11.52244 -17.98842,-27.14846 -17.98637,-43.44094 -0.003,-16.15941 6.36027,-31.66941 17.7122,-43.16984 11.35193,-11.50043 26.77795,-18.06508 42.93602,-18.27173 z"
      fill="#ff0000"
      stroke="none"
      stroke-width="0.520831"
    />
    <rect
      id="rect1076"
      width="52.30687"
      height="109.50859"
      x="268.52859"
      y="422.08896"
      rx="0"
      ry="19.510273"
      fill="none"
      stroke="#ffffff"
      stroke-width="5.6022"
      stroke-miterlimit="4"
      stroke-dasharray="none"
      stroke-opacity="1"
    />
    <rect
      id="rect1064"
      width="28.724665"
      height="59.120449"
      x="339.22394"
      y="430.9393"
      fill="#000000"
      stroke="none"
      stroke-width="0.615012"
    />
    <rect
      id="rect1062"
      width="28.724665"
      height="59.120449"
      x="337.44968"
      y="82.33683"
      fill="#c8ab37"
      stroke="none"
      stroke-width="0.615012"
    />
    <rect
      id="rect1060"
      width="28.724665"
      height="59.120449"
      x="281.2876"
      y="81.23703"
      fill="#000000"
      stroke="none"
      stroke-width="0.615012"
    />
    <rect
      id="rect1058"
      width="28.724665"
      height="59.120449"
      x="224.54765"
      y="81.582153"
      fill="#000000"
      stroke="none"
      stroke-width="0.615012"
    />
    <rect
      id="rect1056"
      width="61.820507"
      height="134.87851"
      x="265.17227"
      y="217.91188"
      fill="#000000"
      stroke="none"
      stroke-width="0.520831"
    />
    <path
      id="connector0pin"
      d="M 79.386545,48.200656 A 28.499802,28.499802 0 0 1 50.886762,76.700474 28.499802,28.499802 0 0 1 22.386944,48.200656 28.499802,28.499802 0 0 1 50.886762,19.700854 28.499802,28.499802 0 0 1 79.386545,48.200656 Z"
      fill="#ffffff"
      stroke="#9a916c"
      stroke-width="16.9999"
    />
    <path
      id="connector1pin"
      d="M 79.425242,148.20065 A 28.499802,28.499802 0 0 1 50.925424,176.70047 28.499802,28.499802 0 0 1 22.425645,148.20065 28.499802,28.499802 0 0 1 50.925424,119.70083 28.499802,28.499802 0 0 1 79.425242,148.20065 Z"
      fill="#ffffff"
      stroke="#9a916c"
      stroke-width="16.9999"
    />
    <path
      id="connector2pin"
      d="M 79.425242,248.20061 A 28.499802,28.499802 0 0 1 50.925424,276.70043 28.499802,28.499802 0 0 1 22.425645,248.20061 28.499802,28.499802 0 0 1 50.925424,219.70083 28.499802,28.499802 0 0 1 79.425242,248.20061 Z"
      fill="#ffffff"
      stroke="#9a916c"
      stroke-width="16.9999"
    />
    <path
      id="connector3pin"
      d="M 79.425242,348.2006 A 28.499802,28.499802 0 0 1 50.925424,376.70041 28.499802,28.499802 0 0 1 22.425645,348.2006 28.499802,28.499802 0 0 1 50.925424,319.70084 28.499802,28.499802 0 0 1 79.425242,348.2006 Z"
      fill="#ffffff"
      stroke="#9a916c"
      stroke-width="16.9999"
    />
    <path
      id="connector4pin"
      d="m 79.425242,448.20046 a 28.499802,28.499802 0 0 1 -28.499818,28.4998 28.499802,28.499802 0 0 1 -28.499779,-28.4998 28.499802,28.499802 0 0 1 28.499779,-28.4998 28.499802,28.499802 0 0 1 28.499818,28.4998 z"
      fill="#ffffff"
      stroke="#9a916c"
      stroke-width="16.9999"
    />
    <path
      id="connector5pin"
      d="m 77.608403,548.20046 a 28.499802,28.499802 0 0 1 -28.499818,28.4998 28.499802,28.499802 0 0 1 -28.499818,-28.4998 28.499802,28.499802 0 0 1 28.499818,-28.49981 28.499802,28.499802 0 0 1 28.499818,28.49981 z"
      fill="#ffffff"
      stroke="#9a916c"
      stroke-width="16.9999"
    />
  </g>
</svg>
